<svg xmlns="http://www.w3.org/2000/svg" viewBox="0 0 512 512" fill="none">
  <defs>
    <linearGradient id="bg" x1="64" y1="48" x2="448" y2="464" gradientUnits="userSpaceOnUse">
      <stop stop-color="#6D28D9"/>
      <stop offset="0.5" stop-color="#4F46E5"/>
      <stop offset="1" stop-color="#0F172A"/>
    </linearGradient>
    <linearGradient id="glow" x1="132" y1="96" x2="374" y2="360" gradientUnits="userSpaceOnUse">
      <stop stop-color="#A78BFA"/>
      <stop offset="1" stop-color="#22D3EE"/>
    </linearGradient>
    <linearGradient id="paper" x1="141" y1="285" x2="371" y2="410" gradientUnits="userSpaceOnUse">
      <stop stop-color="#F8FAFC"/>
      <stop offset="1" stop-color="#DDE7FF"/>
    </linearGradient>
    <filter id="shadow" x="74" y="66" width="364" height="380" filterUnits="userSpaceOnUse" color-interpolation-filters="sRGB">
      <feFlood flood-opacity="0" result="BackgroundImageFix"/>
      <feColorMatrix in="SourceAlpha" type="matrix" values="0 0 0 0 0 0 0 0 0 0 0 0 0 0 0 0 0 0 127 0" result="hardAlpha"/>
      <feOffset dy="14"/>
      <feGaussianBlur stdDeviation="18"/>
      <feComposite in2="hardAlpha" operator="out"/>
      <feColorMatrix type="matrix" values="0 0 0 0 0.0313726 0 0 0 0 0.0588235 0 0 0 0 0.14902 0 0 0 0.35 0"/>
      <feBlend mode="normal" in2="BackgroundImageFix" result="effect1_dropShadow_0_1"/>
      <feBlend mode="normal" in="SourceGraphic" in2="effect1_dropShadow_0_1" result="shape"/>
    </filter>
  </defs>

  <rect x="20" y="20" width="472" height="472" rx="108" fill="url(#bg)"/>
  <circle cx="391" cy="115" r="66" fill="#8B5CF6" fill-opacity="0.28"/>
  <circle cx="135" cy="137" r="78" fill="#22D3EE" fill-opacity="0.12"/>

  <g filter="url(#shadow)">
    <path d="M120 315C120 285.177 144.177 261 174 261H338C367.823 261 392 285.177 392 315V355C392 384.823 367.823 409 338 409H174C144.177 409 120 384.823 120 355V315Z" fill="#101828" fill-opacity="0.5"/>
    <path d="M142 299C142 286.85 151.85 277 164 277H348C360.15 277 370 286.85 370 299V372C370 379.732 363.732 386 356 386H156C148.268 386 142 379.732 142 372V299Z" fill="url(#paper)"/>
    <path d="M256 276V386" stroke="#C7D2FE" stroke-width="6" stroke-linecap="round"/>
    <path d="M170 311H229" stroke="#93C5FD" stroke-width="8" stroke-linecap="round"/>
    <path d="M283 311H342" stroke="#A78BFA" stroke-width="8" stroke-linecap="round"/>
    <path d="M170 335H221" stroke="#CBD5E1" stroke-width="6" stroke-linecap="round"/>
    <path d="M291 335H342" stroke="#CBD5E1" stroke-width="6" stroke-linecap="round"/>
    <path d="M170 356H212" stroke="#CBD5E1" stroke-width="6" stroke-linecap="round"/>
    <path d="M300 356H342" stroke="#CBD5E1" stroke-width="6" stroke-linecap="round"/>
  </g>

  <g>
    <path d="M170 206C170 156.294 210.294 116 260 116C308.191 116 347.5 154.288 349.906 201.886" stroke="url(#glow)" stroke-width="18" stroke-linecap="round"/>
    <path d="M169 205C175 175 188 154 208 141C224 130 242 126 260 127" stroke="#E9D5FF" stroke-width="7" stroke-linecap="round" stroke-dasharray="2 18"/>
    <path d="M244 152L224 210L256 185L287 226L304 172L338 235" stroke="#F8FAFC" stroke-width="18" stroke-linecap="round" stroke-linejoin="round"/>
    <circle cx="170" cy="205" r="10" fill="#22D3EE"/>
    <circle cx="350" cy="206" r="10" fill="#A78BFA"/>
    <circle cx="224" cy="210" r="8" fill="#E9D5FF"/>
    <circle cx="304" cy="172" r="8" fill="#E9D5FF"/>
  </g>

  <path d="M181 414C202 399 226 392 256 392C286 392 310 399 331 414" stroke="#A78BFA" stroke-width="10" stroke-linecap="round" opacity="0.9"/>
</svg>
